<svg xmlns="http://www.w3.org/2000/svg" version="1.1" xmlns:xlink="http://www.w3.org/1999/xlink"
  xmlns:svgjs="http://svgjs.dev/svgjs" width="1000" height="1000">
  <style>
    #light-icon {
    display: inline;
    }
    #dark-icon {
    display: none;
    }

    @media (prefers-color-scheme: dark) {
    #light-icon {
    display: none;
    }
    #dark-icon {
    display: inline;
    }
    }
  </style>
  <g id="light-icon">
    <svg xmlns="http://www.w3.org/2000/svg" version="1.1" xmlns:xlink="http://www.w3.org/1999/xlink"
      xmlns:svgjs="http://svgjs.dev/svgjs" width="1000" height="1000">
      <g clip-path="url(#SvgjsClipPath1059)">
        <rect width="1000" height="1000" fill="#b95aad"></rect>
        <g transform="matrix(7.777777777777778,0,0,7.777777777777778,150,150)">
          <svg xmlns="http://www.w3.org/2000/svg" version="1.1"
            xmlns:xlink="http://www.w3.org/1999/xlink" xmlns:svgjs="http://svgjs.dev/svgjs"
            width="90" height="90">
            <svg viewBox="0 0 90 90" xmlns="http://www.w3.org/2000/svg">
              <path
                d="m35.88 17.18c-5.38-1.82-9-11.47-9-15.33 0 0 3.93 5.82 12.74 1.62l8.56 1.15 15-2.77c0 3.86-3.63 13.51-9 15.33z"
                fill="#e6d488"></path>
              <path
                d="m54.12 17.17c13.27 7.71 23 30.48 23 44.12-.04 16.62-14.4 26.91-32.12 26.91s-32.08-10.29-32.08-26.91c0-13.64 9.69-36.41 23-44.12"
                fill="#ffeb97"></path>
              <g fill="#576065">
                <path
                  d="m43.58 65.17a13.4 13.4 0 0 1 -8.68-3.82l2.83-4a10.65 10.65 0 0 0 5.85 3.16v-5.79c-3.79-1-7.91-2.35-7.91-7.36 0-3.72 2.94-6.88 7.91-7.4v-3.41h3.5v3.45a13 13 0 0 1 7.47 3.27l-2.91 3.83a10.33 10.33 0 0 0 -4.56-2.39v5.19c3.79 1 8 2.43 8 7.43 0 4.08-2.65 7.21-8 7.76v3.35h-3.5zm0-16.15v-4.49c-1.66.22-2.57 1.14-2.57 2.39-.01 1.08.99 1.66 2.57 2.08zm3.5 6.59v4.93c1.8-.37 2.72-1.43 2.72-2.57s-1.14-1.85-2.72-2.36z"></path>
                <path
                  d="m45 90c-19.63 0-33.88-12.07-33.88-28.7 0-13.78 9.14-35 21.33-44-4.82-3.83-7.38-12.11-7.38-15.44a1.8 1.8 0 0 1 3.11-1.24c.06.06 5.78 6 12.61 6a1.8 1.8 0 1 1 0 3.6 20.34 20.34 0 0 1 -11.11-3.73c1.31 3.7 3.77 8 6.77 9a1.8 1.8 0 0 1 .33 3.26c-12.22 7.09-22.06 29.08-22.06 42.55 0 14.78 12.45 25.1 30.28 25.1s30.28-10.32 30.28-25.1c0-13.47-9.84-35.46-22.06-42.56a1.8 1.8 0 0 1 .33-3.26c4.45-1.48 7.78-10.35 7.78-13.63a1.8 1.8 0 0 1 3.6 0c0 3.33-2.57 11.61-7.38 15.44 12.19 9.05 21.33 30.23 21.33 44 0 16.64-14.25 28.71-33.88 28.71z"></path>
                <path
                  d="m49.3 11.78a1.8 1.8 0 0 1 -1.72-1.28c-.75-2.5-2.13-5.6-4.4-6.13-2.55-.59-5.75 2.12-6.67 3.11a1.8 1.8 0 1 1 -2.65-2.48c.2-.22 5-5.37 10.13-4.17 3.17.73 5.54 3.63 7 8.6a1.8 1.8 0 0 1 -1.21 2.24 1.84 1.84 0 0 1 -.48.11z"></path>
                <path
                  d="m49.06 8a1.74 1.74 0 0 1 -.64-.12 1.76 1.76 0 0 1 -1.05-2.23c.22-.65 2.56-6.24 15.84-5.6a1.8 1.8 0 0 1 1.71 1.88 1.82 1.82 0 0 1 -1.92 1.72c-10.52-.52-12.29 3.24-12.3 3.28a1.86 1.86 0 0 1 -1.64 1.07z"></path>
                <path d="m56.27 19.1h-19.64a1.8 1.8 0 1 1 0-3.6h19.64a1.8 1.8 0 1 1 0 3.6z"></path>
                <path
                  d="m69.7 26.68a1.8 1.8 0 0 1 -1.76-1.42c-1.19-5.45-11.43-4.79-11.53-4.78a1.8 1.8 0 0 1 -.29-3.59c.54 0 13.46-1 15.34 7.6a1.8 1.8 0 0 1 -1.37 2.14 1.83 1.83 0 0 1 -.39.05z"></path>
                <path
                  d="m59.94 19.45a11 11 0 0 1 -4.48-1 1.8 1.8 0 0 1 1.6-3.22 6.45 6.45 0 0 0 4.46.36 4.93 4.93 0 0 0 2.71-3 1.8 1.8 0 1 1 3.32 1.41 8.41 8.41 0 0 1 -4.8 5 8.11 8.11 0 0 1 -2.81.45z"></path>
              </g>
            </svg>
          </svg>
        </g>
      </g>
      <defs>
        <clipPath id="SvgjsClipPath1059">
          <rect width="1000" height="1000" x="0" y="0" rx="350" ry="350"></rect>
        </clipPath>
      </defs>
    </svg>
  </g>
  <g id="dark-icon">
    <svg xmlns="http://www.w3.org/2000/svg" version="1.1" xmlns:xlink="http://www.w3.org/1999/xlink"
      xmlns:svgjs="http://svgjs.dev/svgjs" width="1000" height="1000">
      <g clip-path="url(#SvgjsClipPath1060)">
        <rect width="1000" height="1000" fill="#b95aad"></rect>
        <g transform="matrix(7.777777777777778,0,0,7.777777777777778,150,150)">
          <svg xmlns="http://www.w3.org/2000/svg" version="1.1"
            xmlns:xlink="http://www.w3.org/1999/xlink" xmlns:svgjs="http://svgjs.dev/svgjs"
            width="90" height="90">
            <svg viewBox="0 0 90 90" xmlns="http://www.w3.org/2000/svg">
              <path
                d="m35.88 17.18c-5.38-1.82-9-11.47-9-15.33 0 0 3.93 5.82 12.74 1.62l8.56 1.15 15-2.77c0 3.86-3.63 13.51-9 15.33z"
                fill="#e6d488"></path>
              <path
                d="m54.12 17.17c13.27 7.71 23 30.48 23 44.12-.04 16.62-14.4 26.91-32.12 26.91s-32.08-10.29-32.08-26.91c0-13.64 9.69-36.41 23-44.12"
                fill="#ffeb97"></path>
              <g fill="#576065">
                <path
                  d="m43.58 65.17a13.4 13.4 0 0 1 -8.68-3.82l2.83-4a10.65 10.65 0 0 0 5.85 3.16v-5.79c-3.79-1-7.91-2.35-7.91-7.36 0-3.72 2.94-6.88 7.91-7.4v-3.41h3.5v3.45a13 13 0 0 1 7.47 3.27l-2.91 3.83a10.33 10.33 0 0 0 -4.56-2.39v5.19c3.79 1 8 2.43 8 7.43 0 4.08-2.65 7.21-8 7.76v3.35h-3.5zm0-16.15v-4.49c-1.66.22-2.57 1.14-2.57 2.39-.01 1.08.99 1.66 2.57 2.08zm3.5 6.59v4.93c1.8-.37 2.72-1.43 2.72-2.57s-1.14-1.85-2.72-2.36z"></path>
                <path
                  d="m45 90c-19.63 0-33.88-12.07-33.88-28.7 0-13.78 9.14-35 21.33-44-4.82-3.83-7.38-12.11-7.38-15.44a1.8 1.8 0 0 1 3.11-1.24c.06.06 5.78 6 12.61 6a1.8 1.8 0 1 1 0 3.6 20.34 20.34 0 0 1 -11.11-3.73c1.31 3.7 3.77 8 6.77 9a1.8 1.8 0 0 1 .33 3.26c-12.22 7.09-22.06 29.08-22.06 42.55 0 14.78 12.45 25.1 30.28 25.1s30.28-10.32 30.28-25.1c0-13.47-9.84-35.46-22.06-42.56a1.8 1.8 0 0 1 .33-3.26c4.45-1.48 7.78-10.35 7.78-13.63a1.8 1.8 0 0 1 3.6 0c0 3.33-2.57 11.61-7.38 15.44 12.19 9.05 21.33 30.23 21.33 44 0 16.64-14.25 28.71-33.88 28.71z"></path>
                <path
                  d="m49.3 11.78a1.8 1.8 0 0 1 -1.72-1.28c-.75-2.5-2.13-5.6-4.4-6.13-2.55-.59-5.75 2.12-6.67 3.11a1.8 1.8 0 1 1 -2.65-2.48c.2-.22 5-5.37 10.13-4.17 3.17.73 5.54 3.63 7 8.6a1.8 1.8 0 0 1 -1.21 2.24 1.84 1.84 0 0 1 -.48.11z"></path>
                <path
                  d="m49.06 8a1.74 1.74 0 0 1 -.64-.12 1.76 1.76 0 0 1 -1.05-2.23c.22-.65 2.56-6.24 15.84-5.6a1.8 1.8 0 0 1 1.71 1.88 1.82 1.82 0 0 1 -1.92 1.72c-10.52-.52-12.29 3.24-12.3 3.28a1.86 1.86 0 0 1 -1.64 1.07z"></path>
                <path d="m56.27 19.1h-19.64a1.8 1.8 0 1 1 0-3.6h19.64a1.8 1.8 0 1 1 0 3.6z"></path>
                <path
                  d="m69.7 26.68a1.8 1.8 0 0 1 -1.76-1.42c-1.19-5.45-11.43-4.79-11.53-4.78a1.8 1.8 0 0 1 -.29-3.59c.54 0 13.46-1 15.34 7.6a1.8 1.8 0 0 1 -1.37 2.14 1.83 1.83 0 0 1 -.39.05z"></path>
                <path
                  d="m59.94 19.45a11 11 0 0 1 -4.48-1 1.8 1.8 0 0 1 1.6-3.22 6.45 6.45 0 0 0 4.46.36 4.93 4.93 0 0 0 2.71-3 1.8 1.8 0 1 1 3.32 1.41 8.41 8.41 0 0 1 -4.8 5 8.11 8.11 0 0 1 -2.81.45z"></path>
              </g>
            </svg>
          </svg>
        </g>
      </g>
      <defs>
        <clipPath id="SvgjsClipPath1060">
          <rect width="1000" height="1000" x="0" y="0" rx="350" ry="350"></rect>
        </clipPath>
      </defs>
    </svg>
  </g>
</svg>